# This file uses centimeters as units for non-parametric coordinates.

mtllib Laser.mtl
g default
v 2.853171 0.927052 -5.472457
v 2.427052 1.763357 -5.472457
v 1.763357 2.427052 -5.472457
v 0.927051 2.853171 -5.472457
v 0.000000 3.000001 -5.472457
v -0.927051 2.853171 -5.472457
v -1.763356 2.427052 -5.472457
v -2.427052 1.763356 -5.472457
v -2.853170 0.927051 -5.472457
v -3.000001 -0.000000 -5.472457
v -2.853170 -0.927051 -5.472457
v -2.427052 -1.763356 -5.472457
v -1.763356 -2.427051 -5.472457
v -0.927051 -2.853170 -5.472457
v -0.000000 -3.000000 -5.472457
v 0.927051 -2.853170 -5.472457
v 1.763356 -2.427051 -5.472457
v 2.427051 -1.763356 -5.472457
v 2.853170 -0.927051 -5.472457
v 3.000000 -0.000000 -5.472457
v 1.187117 0.385719 -0.633111
v 1.009823 0.733680 -0.633111
v 0.733680 1.009823 -0.633111
v 0.385718 1.187119 -0.633111
v -0.000000 1.248210 -0.633111
v -0.385718 1.187119 -0.633111
v -0.733680 1.009823 -0.633111
v -1.009823 0.733679 -0.633111
v -1.187118 0.385718 -0.633111
v -1.248210 0.000000 -0.633111
v -1.187118 -0.385718 -0.633111
v -1.009823 -0.733679 -0.633111
v -0.733679 -1.009822 -0.633111
v -0.385718 -1.187119 -0.633111
v -0.000000 -1.248209 -0.633111
v 0.385718 -1.187119 -0.633111
v 0.733679 -1.009822 -0.633111
v 1.009822 -0.733679 -0.633111
v 1.187117 -0.385718 -0.633111
v 1.248210 0.000000 -0.633111
v 1.187117 0.385719 18.076263
v 1.009823 0.733680 18.076263
v 0.733680 1.009823 18.076263
v 0.385718 1.187119 18.076263
v -0.000000 1.248210 18.076263
v -0.385718 1.187119 18.076263
v -0.733680 1.009823 18.076263
v -1.009823 0.733679 18.076263
v -1.187118 0.385718 18.076263
v -1.248210 0.000000 18.076263
v -1.187118 -0.385718 18.076263
v -1.009823 -0.733679 18.076263
v -0.733679 -1.009822 18.076263
v -0.385718 -1.187119 18.076263
v -0.000000 -1.248209 18.076263
v 0.385718 -1.187119 18.076263
v 0.733679 -1.009822 18.076263
v 1.009822 -0.733679 18.076263
v 1.187117 -0.385718 18.076263
v 1.248210 0.000000 18.076263
vt 0.847970 0.976544
vt 0.836796 0.976544
vt 0.836796 0.843358
vt 0.847970 0.843358
vt 0.825608 0.976544
vt 0.825608 0.843358
vt 0.813661 0.976544
vt 0.814404 0.843358
vt 0.803209 0.976544
vt 0.803209 0.843358
vt 0.792013 0.976544
vt 0.792013 0.843358
vt 0.780848 0.976544
vt 0.780848 0.843358
vt 0.769714 0.976544
vt 0.769714 0.843358
vt 0.758650 0.976544
vt 0.758650 0.843358
vt 0.747666 0.976544
vt 0.747666 0.843358
vt 0.736794 0.976544
vt 0.736794 0.843358
vt 0.726042 0.976544
vt 0.726042 0.843358
vt 0.715442 0.976544
vt 0.715442 0.843358
vt 0.705004 0.976544
vt 0.923962 0.843358
vt 0.913508 0.976544
vt 0.913508 0.843358
vt 0.902876 0.976544
vt 0.892100 0.976544
vt 0.892100 0.843358
vt 0.881195 0.976544
vt 0.881195 0.843358
vt 0.870191 0.976544
vt 0.870191 0.843358
vt 0.859106 0.976544
vt 0.859106 0.843358
vt 0.835131 0.004174
vt 0.846061 0.004143
vt 0.824204 0.004203
vt 0.813281 0.004224
vt 0.802358 0.004236
vt 0.791431 0.004241
vt 0.780499 0.004242
vt 0.769571 0.004243
vt 0.758645 0.004244
vt 0.747719 0.004246
vt 0.736790 0.004248
vt 0.725852 0.004252
vt 0.714906 0.004257
vt 0.703948 0.004267
vt 0.889764 0.004016
vt 0.878836 0.004047
vt 0.867912 0.004078
vt 0.856988 0.004110
vt 0.705004 0.843358
vt 0.923962 0.976544
vt 0.911646 0.003955
vt 0.922603 0.003930
vt 0.900700 0.003984
vt 0.902876 0.843358
vn 0.894269 0.290565 0.340375
vn 0.760711 0.552688 0.340375
vn 0.803882 0.584053 0.112497
vn 0.945019 0.307055 0.112497
vn 0.552689 0.760710 0.340375
vn 0.584055 0.803881 0.112497
vn 0.290566 0.894269 0.340375
vn 0.307056 0.945019 0.112497
vn -0.000000 0.940290 0.340375
vn -0.000000 0.993652 0.112497
vn -0.290566 0.894269 0.340375
vn -0.307056 0.945019 0.112497
vn -0.552689 0.760710 0.340375
vn -0.584055 0.803881 0.112497
vn -0.760711 0.552688 0.340375
vn -0.803882 0.584054 0.112497
vn -0.894269 0.290566 0.340375
vn -0.945019 0.307056 0.112497
vn -0.940290 -0.000000 0.340375
vn -0.993652 0.000000 0.112497
vn -0.894269 -0.290566 0.340375
vn -0.945019 -0.307056 0.112497
vn -0.760710 -0.552689 0.340375
vn -0.803881 -0.584054 0.112497
vn -0.552689 -0.760710 0.340375
vn -0.584055 -0.803881 0.112497
vn -0.290566 -0.894269 0.340375
vn -0.307056 -0.945019 0.112497
vn 0.000000 -0.940290 0.340375
vn -0.000000 -0.993652 0.112497
vn 0.290566 -0.894269 0.340375
vn 0.307056 -0.945019 0.112497
vn 0.552689 -0.760710 0.340375
vn 0.584055 -0.803881 0.112497
vn 0.760711 -0.552688 0.340375
vn 0.803882 -0.584054 0.112497
vn 0.894269 -0.290566 0.340375
vn 0.945019 -0.307056 0.112497
vn 0.940290 -0.000001 0.340375
vn 0.993652 -0.000000 0.112497
vn 0.809018 0.587784 0.000000
vn 0.951057 0.309017 0.000000
vn 0.587786 0.809016 0.000000
vn 0.309017 0.951056 0.000000
vn -0.000000 1.000000 0.000000
vn -0.309018 0.951056 0.000000
vn -0.587787 0.809016 0.000000
vn -0.809017 0.587785 0.000000
vn -0.951056 0.309018 0.000000
vn -1.000000 0.000000 0.000000
vn -0.951056 -0.309018 0.000000
vn -0.809017 -0.587785 0.000000
vn -0.587786 -0.809016 0.000000
vn -0.309018 -0.951056 0.000000
vn -0.000000 -1.000000 0.000000
vn 0.309018 -0.951056 0.000000
vn 0.587787 -0.809016 0.000000
vn 0.809017 -0.587785 0.000000
vn 0.951056 -0.309018 0.000000
vn 1.000000 -0.000000 0.000000
s 1
g pCylinder1
usemtl initialShadingGroup
f 1/1/1 2/2/2 22/3/3 21/4/4
f 2/2/2 3/5/5 23/6/6 22/3/3
f 3/5/5 4/7/7 24/8/8 23/6/6
f 4/7/7 5/9/9 25/10/10 24/8/8
f 5/9/9 6/11/11 26/12/12 25/10/10
f 6/11/11 7/13/13 27/14/14 26/12/12
f 7/13/13 8/15/15 28/16/16 27/14/14
f 8/15/15 9/17/17 29/18/18 28/16/16
f 9/17/17 10/19/19 30/20/20 29/18/18
f 10/19/19 11/21/21 31/22/22 30/20/20
f 11/21/21 12/23/23 32/24/24 31/22/22
f 12/23/23 13/25/25 33/26/26 32/24/24
f 13/25/25 14/27/27 34/58/28 33/26/26
f 14/59/27 15/29/29 35/30/30 34/28/28
f 15/29/29 16/31/31 36/63/32 35/30/30
f 16/31/31 17/32/33 37/33/34 36/63/32
f 17/32/33 18/34/35 38/35/36 37/33/34
f 18/34/35 19/36/37 39/37/38 38/35/36
f 19/36/37 20/38/39 40/39/40 39/37/38
f 20/38/39 1/1/1 21/4/4 40/39/40
f 21/4/4 22/3/3 42/40/41 41/41/42
f 22/3/3 23/6/6 43/42/43 42/40/41
f 23/6/6 24/8/8 44/43/44 43/42/43
f 24/8/8 25/10/10 45/44/45 44/43/44
f 25/10/10 26/12/12 46/45/46 45/44/45
f 26/12/12 27/14/14 47/46/47 46/45/46
f 27/14/14 28/16/16 48/47/48 47/46/47
f 28/16/16 29/18/18 49/48/49 48/47/48
f 29/18/18 30/20/20 50/49/50 49/48/49
f 30/20/20 31/22/22 51/50/51 50/49/50
f 31/22/22 32/24/24 52/51/52 51/50/51
f 32/24/24 33/26/26 53/52/53 52/51/52
f 33/26/26 34/58/28 54/53/54 53/52/53
f 34/28/28 35/30/30 55/60/55 54/61/54
f 35/30/30 36/63/32 56/62/56 55/60/55
f 36/63/32 37/33/34 57/54/57 56/62/56
f 37/33/34 38/35/36 58/55/58 57/54/57
f 38/35/36 39/37/38 59/56/59 58/55/58
f 39/37/38 40/39/40 60/57/60 59/56/59
f 40/39/40 21/4/4 41/41/42 60/57/60
